# xmcd
#
# Track frame offsets: 
#        150
#        18241
#        32669
#        48580
#        67231
#        74399
#        95065
#        112980
#        136559
#        155859
#        175781
#        197833
#        213574
#        232591
#        254061
#        276796
#        296954
#        320619
#
# Disc length: 4499 seconds
#
# Revision: 0
# Processed by: cddbd v1.5.2PL0 Copyright (c) Steve Scherf et al.
# Submitted via: ExactAudioCopy v1.3
#
DISCID=15119112
DTITLE=Yelawolf - Love Story
DYEAR=2015
DGENRE=Rap
TTITLE0=Outer Space
TTITLE1=Yelawolf and Jessy Wilson - Change
TTITLE2=American You
TTITLE3=Whiskey In A Bottle
TTITLE4=Ball And Chain
TTITLE5=Till It's Gone
TTITLE6=Yelawolf and The McCrary Sisters - Devil In My Veins
TTITLE7=Yelawolf and Eminem - Best Friend
TTITLE8=Empty Bottles
TTITLE9=Heartbreak
TTITLE10=Tennessee Love
TTITLE11=Box Chevy V
TTITLE12=Love Story
TTITLE13=Johnny Cash
TTITLE14=Have A Great Flight
TTITLE15=Sky's The Limit
TTITLE16=Disappear
TTITLE17=Fiddle Me This
EXTD=
EXTT0=
EXTT1=
EXTT2=
EXTT3=
EXTT4=
EXTT5=
EXTT6=
EXTT7=
EXTT8=
EXTT9=
EXTT10=
EXTT11=
EXTT12=
EXTT13=
EXTT14=
EXTT15=
EXTT16=
EXTT17=
PLAYORDER=
